<svg viewBox="0 0 48 48" xmlns="http://www.w3.org/2000/svg" role="img"><path d="M24 8C14.06 8 6 16.06 6 26s8.06 18 18 18 18-8.06 18-18S33.94 8 24 8zm7.78 16.1l-8.48 8.48c-.78.78-2.04.78-2.82 0l-4.24-4.24c-.78-.78-.78-2.04 0-2.82.78-.78 2.04-.78 2.82 0l2.82 2.82 7.08-7.08c.78-.78 2.04-.78 2.82 0 .78.8.78 2.06 0 2.84zM12.58 8.92c.78-.78.78-2.04 0-2.82-.78-.78-2.04-.78-2.82 0L4.1 11.76c-.78.78-.78 2.04 0 2.82.78.78 2.04.78 2.82 0l5.66-5.66zM43.9 11.76L38.24 6.1c-.78-.78-2.04-.78-2.82 0-.78.78-.78 2.04 0 2.82l5.66 5.66c.78.78 2.04.78 2.82 0 .78-.78.78-2.04 0-2.82z" fill="inherit"/></svg>