<svg viewBox="0 0 48 48" xmlns="http://www.w3.org/2000/svg" role="img"><path d="M36 8h4c2.2 0 4 1.8 4 4v4c0 1.1-.9 2-2 2s-2-.9-2-2v-4h-4c-1.1 0-2-.9-2-2s.9-2 2-2zM8 16v-4h4c1.1 0 2-.9 2-2s-.9-2-2-2H8c-2.2 0-4 1.8-4 4v4c0 1.1.9 2 2 2s2-.9 2-2zm32 16v4h-4c-1.1 0-2 .9-2 2s.9 2 2 2h4c2.2 0 4-1.8 4-4v-4c0-1.1-.9-2-2-2s-2 .9-2 2zm-28 4H8v-4c0-1.1-.9-2-2-2s-2 .9-2 2v4c0 2.2 1.8 4 4 4h4c1.1 0 2-.9 2-2s-.9-2-2-2zm20-20H16c-2.2 0-4 1.8-4 4v8c0 2.2 1.8 4 4 4h16c2.2 0 4-1.8 4-4v-8c0-2.2-1.8-4-4-4z" fill="inherit"/></svg>