<svg viewBox="0 0 48 48" xmlns="http://www.w3.org/2000/svg" role="img"><path d="M18 18.48V11c0-2.76 2.24-5 5-5s5 2.24 5 5v7.48c2.42-1.62 4-4.36 4-7.48 0-4.98-4.02-9-9-9s-9 4.02-9 9c0 3.12 1.58 5.86 4 7.48z" fill="inherit"/><path d="M29 23.42c-.56-.28-1.16-.42-1.78-.42H26V11c0-1.66-1.34-3-3-3s-3 1.34-3 3v21.48l-6.88-1.44c-.74-.16-1.52.08-2.06.62-.86.88-.86 2.28.02 3.16l8.02 8.02c.74.74 1.76 1.16 2.82 1.16h12.82c2 0 3.68-1.46 3.96-3.44l1.26-8.92c.24-1.7-.64-3.38-2.18-4.14L29 23.42z" fill="inherit"/></svg>