<svg viewBox="0 0 48 48" xmlns="http://www.w3.org/2000/svg" role="img"><path d="M24 4C12.96 4 4 12.96 4 24s8.96 20 20 20 20-8.96 20-20S35.04 4 24 4zm0 36c-8.82 0-16-7.18-16-16S15.18 8 24 8s16 7.18 16 16-7.18 16-16 16zm-2-8h4v4h-4v-4zm3.22-19.92a8.004 8.004 0 00-8.86 5.58C16 18.82 16.88 20 18.1 20h.4c.82 0 1.48-.58 1.76-1.34.64-1.78 2.54-3 4.6-2.56 1.9.4 3.3 2.26 3.14 4.2-.2 2.68-3.24 3.26-4.9 5.76 0 .02-.02.02-.02.04-.02.04-.04.06-.06.1-.18.3-.36.64-.5 1-.02.06-.06.1-.08.16-.02.04-.02.08-.04.14-.24.68-.4 1.5-.4 2.5h4c0-.84.22-1.54.56-2.14.04-.06.06-.12.1-.18.16-.28.36-.54.56-.78.02-.02.04-.06.06-.08.2-.24.42-.46.66-.68 1.92-1.82 4.52-3.3 3.98-7.12-.48-3.48-3.22-6.42-6.7-6.94z" fill="inherit"/></svg>