<svg viewBox="0 0 48 48" xmlns="http://www.w3.org/2000/svg" role="img"><path d="M36 22c1.4 0 2.74.2 4 .58V20c0-2.2-1.8-4-4-4h-2v-4c0-5.52-4.48-10-10-10S14 6.48 14 12v4h-2c-2.2 0-4 1.8-4 4v20c0 2.2 1.8 4 4 4h12.52A13.926 13.926 0 0122 36c0-7.74 6.26-14 14-14zM18 12c0-3.32 2.68-6 6-6s6 2.68 6 6v4H18v-4z" fill="inherit"/><path d="M36 26c-5.52 0-10 4.48-10 10s4.48 10 10 10 10-4.48 10-10-4.48-10-10-10zm4 14c-.4.4-1.02.4-1.42 0l-3.3-3.3c-.18-.18-.3-.44-.3-.7v-5c0-.56.44-1 1-1s1 .44 1 1v4.58l3 3c.42.4.42 1.02.02 1.42z" fill="inherit"/></svg>