<svg viewBox="0 0 48 48" xmlns="http://www.w3.org/2000/svg" role="img"><path d="M24 28a4 4 0 100-8 4 4 0 000 8z" fill="inherit"/><path d="M38 6H10c-2.22 0-4 1.8-4 4v28c0 2.2 1.78 4 4 4h28c2.22 0 4-1.8 4-4V10c0-2.2-1.78-4-4-4zm-6.5 18c0 .44-.06.84-.12 1.26l1.68 1.46c.36.32.44.84.2 1.26l-1.18 2.04c-.24.42-.74.6-1.18.44l-2.12-.72c-.64.54-1.36.96-2.16 1.26l-.44 2.18c-.1.46-.5.8-.98.8h-2.36c-.48 0-.88-.34-.98-.8L21.42 31c-.8-.3-1.52-.72-2.16-1.26l-2.12.72a.992.992 0 01-1.18-.44l-1.18-2.04c-.24-.42-.16-.94.2-1.26l1.68-1.46c-.1-.42-.16-.82-.16-1.26 0-.44.06-.84.12-1.26l-1.68-1.46c-.36-.32-.44-.84-.2-1.26l1.18-2.04c.24-.42.74-.6 1.18-.44l2.12.72c.64-.54 1.36-.96 2.16-1.26l.44-2.18c.12-.48.52-.82 1-.82h2.36c.48 0 .88.34.98.8l.44 2.18c.8.3 1.52.72 2.16 1.26l2.12-.72c.46-.16.94.04 1.18.44L33.24 20c.24.42.16.94-.2 1.26l-1.68 1.46c.08.44.14.84.14 1.28z" fill="inherit"/></svg>