<svg viewBox="0 0 48 48" xmlns="http://www.w3.org/2000/svg" role="img"><path d="M38 6h-8.36C28.8 3.68 26.6 2 24 2c-2.6 0-4.8 1.68-5.64 4H10c-2.2 0-4 1.8-4 4v28c0 2.2 1.8 4 4 4h28c2.2 0 4-1.8 4-4V10c0-2.2-1.8-4-4-4zm-14-.5c.82 0 1.5.68 1.5 1.5s-.68 1.5-1.5 1.5-1.5-.68-1.5-1.5.68-1.5 1.5-1.5zM26 34H16c-1.1 0-2-.9-2-2s.9-2 2-2h10c1.1 0 2 .9 2 2s-.9 2-2 2zm6-8H16c-1.1 0-2-.9-2-2s.9-2 2-2h16c1.1 0 2 .9 2 2s-.9 2-2 2zm0-8H16c-1.1 0-2-.9-2-2s.9-2 2-2h16c1.1 0 2 .9 2 2s-.9 2-2 2z" fill="inherit"/></svg>