<svg viewBox="0 0 48 48" xmlns="http://www.w3.org/2000/svg" role="img"><path d="M29.8 6H18.2c-1.06 0-2.08.42-2.84 1.18l-8.2 8.2C6.42 16.12 6 17.14 6 18.2v11.6c0 1.06.42 2.08 1.18 2.82l8.2 8.2c.74.76 1.76 1.18 2.82 1.18h11.6c1.06 0 2.08-.42 2.82-1.18l8.2-8.2c.76-.74 1.18-1.76 1.18-2.82V18.2c0-1.06-.42-2.08-1.18-2.82l-8.2-8.2A3.932 3.932 0 0029.8 6zm1.28 25.08c-.78.78-2.04.78-2.82 0L24 26.82l-4.24 4.24c-.78.78-2.04.78-2.82 0-.78-.78-.78-2.04 0-2.82L21.18 24l-4.26-4.24c-.78-.78-.78-2.04 0-2.82.78-.78 2.04-.78 2.82 0L24 21.18l4.24-4.24c.78-.78 2.04-.78 2.82 0 .78.78.78 2.04 0 2.82L26.82 24l4.24 4.24c.8.78.8 2.06.02 2.84z" fill="inherit"/></svg>