<svg width="40" height="40" viewBox="0 0 40 40" fill="none" xmlns="http://www.w3.org/2000/svg">
<style type="text/css">
	.svg_water_glass_st0{fill:currentColor;}
</style>
<path d="M22.1881 16.2871L20.8789 15.7962L24.7747 2.0925C24.8408 1.79411 25.004 1.52555 25.2391 1.32815C25.4743 1.13075 25.7683 1.01545 26.0759 1H30.7781V2.58333H26.0759L22.1881 16.2871Z" fill="#424953"/>
<path d="M26.1559 39.2H26.1559C26.7926 39.1998 27.4073 38.9674 27.8828 38.5465C28.3582 38.1256 28.6612 37.5457 28.7336 36.917L28.7336 36.9167L31.9987 8.14755L32.024 7.925H31.8H9H8.77614L8.80126 8.14745L12.0504 36.9166L12.0505 36.917C12.1231 37.5486 12.4286 38.131 12.9077 38.5523C13.3866 38.9733 14.0051 39.2038 14.6445 39.2H26.1559ZM14.0764 36.6895L11.0441 9.90833H29.796L26.7874 36.6897L26.7874 36.6899C26.7712 36.8348 26.7014 36.969 26.5911 37.0664C26.4806 37.1639 26.3374 37.2175 26.189 37.2166H26.1878L14.676 37.2166L14.6748 37.2166C14.5264 37.2175 14.3832 37.1639 14.2728 37.0664C14.1624 36.969 14.0927 36.8348 14.0765 36.6899L14.0764 36.6895Z"  class="svg_water_glass_st0" stroke="currentColor" stroke-width="0.4"/>
<path d="M23.4735 29.1831V28.9831H23.2735H21.6769H21.4769V29.1831V30.7664V30.9664H21.6769H23.2735H23.4735V30.7664V29.1831Z"  class="svg_water_glass_st0" stroke="currentColor" stroke-width="0.4"/>
<path d="M17.4071 24.75V24.55H17.2071H15.6105H15.4105V24.75V26.3333V26.5333H15.6105H17.2071H17.4071V26.3333V24.75Z"  class="svg_water_glass_st0" stroke="currentColor" stroke-width="0.4"/>
<path d="M26.1885 20.793V20.593H25.9885H24.3918H24.1918V20.793V22.3763V22.5763H24.3918H25.9885H26.1885V22.3763V20.793Z"  class="svg_water_glass_st0" stroke="currentColor" stroke-width="0.4"/>
<path d="M10.7003 15.05H10.5003V15.25V16.8333V17.0333H10.7003H30.0995H30.2995V16.8333V15.25V15.05H30.0995H10.7003Z"  class="svg_water_glass_st0" stroke="currentColor" stroke-width="0.4"/>
</svg>
