<?xml version="1.0" encoding="utf-8"?>
<!-- Generator: Adobe Illustrator 26.1.0, SVG Export Plug-In . SVG Version: 6.00 Build 0)  -->
<svg version="1.1" id="Camada_1" xmlns="http://www.w3.org/2000/svg" xmlns:xlink="http://www.w3.org/1999/xlink" x="0px" y="0px"
	 viewBox="0 0 40 40" style="enable-background:new 0 0 40 40;" xml:space="preserve">
<style type="text/css">
	.st0{fill:currentColor;stroke:currentColor;stroke-width:0.5;}
	.st1{fill:#424953;}
</style>
<path class="st0" d="M34.9,34.8v-0.1h-0.1H2.9H2.8v0.1v1.5v0.1h0.1h31.9h0.1v-0.1V34.8z"/>
<path class="st0" d="M30.6,27.3v0.1h0.1h2.6c1,0,2-0.4,2.8-1.2c0.7-0.7,1.2-1.7,1.2-2.8c0-1-0.4-2-1.2-2.8c-0.7-0.7-1.7-1.2-2.8-1.2
	h-1.7h-0.1v0.1v1.5v0.1h0.1h1.7c0.6,0,1.1,0.2,1.5,0.6c0.4,0.4,0.6,0.9,0.6,1.5s-0.2,1.1-0.6,1.5c-0.4,0.4-0.9,0.6-1.5,0.6h-2.6
	h-0.1v0.1V27.3z"/>
<path class="st0" d="M25,36.4v0.1h0.1c1.2,0,2.3-0.7,3.2-1.8c0.9-1.2,1.7-2.8,2.3-4.7c1.3-3.9,2-9,1.9-14.1v-0.8V15h-0.1H5.2H5.1
	v0.1v0.8c0,5,0.7,10.2,2,14.1c0.6,1.9,1.4,3.6,2.3,4.7c0.9,1.2,2,1.8,3.2,1.8h0.1v-0.1v-1.5v-0.1h-0.1c-0.6,0-1.3-0.4-1.9-1.3
	c-0.6-0.9-1.3-2.2-1.8-3.8C7.7,26.4,7,21.9,6.9,16.8h24c-0.1,5.2-0.9,9.6-1.9,12.8c-0.5,1.6-1.2,2.9-1.8,3.8
	c-0.7,0.9-1.3,1.3-1.9,1.3H25v0.1V36.4z"/>
<path class="st1" d="M16.6,13.6c-0.5,0-1.1-0.1-1.5-0.4c-0.5-0.3-0.8-0.7-1.1-1.1c-0.3-0.5-0.4-1-0.4-1.5c0-0.5,0.1-1.1,0.4-1.5
	l0.9-1.5c0.1-0.2,0.2-0.5,0.2-0.8c0-0.4-0.2-0.8-0.4-1.1c-0.3-0.3-0.7-0.4-1.1-0.4V3.7c0.5,0,1.1,0.1,1.5,0.4
	c0.5,0.3,0.8,0.7,1.1,1.1c0.3,0.5,0.4,1,0.4,1.5c0,0.5-0.1,1.1-0.4,1.5l-0.9,1.5c-0.1,0.2-0.2,0.5-0.2,0.8c0,0.4,0.2,0.8,0.4,1.1
	c0.3,0.3,0.7,0.4,1.1,0.4V13.6z"/>
<path class="st1" d="M22.7,13.6c-0.5,0-1.1-0.1-1.5-0.4c-0.5-0.3-0.8-0.7-1.1-1.1c-0.3-0.5-0.4-1-0.4-1.5c0-0.5,0.1-1.1,0.4-1.5
	l0.9-1.5c0.1-0.2,0.2-0.5,0.2-0.8c0-0.4-0.2-0.8-0.4-1.1c-0.3-0.3-0.7-0.4-1.1-0.4V3.7c0.5,0,1.1,0.1,1.5,0.4
	c0.5,0.3,0.8,0.7,1.1,1.1c0.3,0.5,0.4,1,0.4,1.5c0,0.5-0.1,1.1-0.4,1.5l-0.9,1.5c-0.1,0.2-0.2,0.5-0.2,0.8c0,0.4,0.2,0.8,0.4,1.1
	s0.7,0.4,1.1,0.4V13.6z"/>
<path class="st0" d="M18.1,29.7h0.1v-0.1v-6.1v-0.1l0,0l-3.8-3.6l-0.1-0.1l-0.1,0.1l-3.8,3.6l0,0v0.1v6.1v0.1h0.1H18.1z M16.4,24.1
	v3.7h-4.3v-3.7l2.1-2L16.4,24.1z"/>
<path class="st0" d="M15.2,15.9v-0.1h-0.1h-1.5h-0.1v0.1v5v0.1h0.1h1.5h0.1v-0.1V15.9z"/>
</svg>
