<?xml version="1.0" encoding="utf-8"?>
<!-- Generator: Adobe Illustrator 26.1.0, SVG Export Plug-In . SVG Version: 6.00 Build 0)  -->
<svg version="1.1" id="Camada_1" xmlns="http://www.w3.org/2000/svg" xmlns:xlink="http://www.w3.org/1999/xlink" x="0px" y="0px"
	 viewBox="0 0 100 100" style="enable-background:new 0 0 100 100;" xml:space="preserve">
<style type="text/css">
	.svg_flag_st0{fill:currentColor;}
	.svg_flag_st1{fill:#2C1103;}
</style>
<path class="svg_flag_st0" d="M82.2,83.3L52.7,33L36.7,60.5l0,0l0,0L23.5,83.3H82.2z M27.3,81.1l11.1-19.2l6.3-5.2l6.1,6.8l10-5.7l6.5,4.5
	l11.1,18.8H27.3z M52.7,37.4l12,20.4L61,55.2l-9.6,5.5l-6.4-7l-3.4,2.8L52.7,37.4L52.7,37.4z"/>
<path class="svg_flag_st0" d="M76.2,59.4l12.5,21.2h-6.2l1,1.6l0.3,0.6h8.8L76.2,55l-4.4,7.5l1.3,2.2L76.2,59.4z"/>
<path class="svg_flag_st0" d="M23.7,80.5H11.3l9.2-15.9l2.5,2.7l9.1-7.6l1.8,3.1l1.3-2.2l-7.5-12.8L7.5,82.7h14.9l0.3-0.6L23.7,80.5z
	 M27.7,52.3l3.3,5.6l-7.8,6.5l-1.5-1.7L27.7,52.3L27.7,52.3z"/>
<path class="st1" d="M36.6,16l3.4,6.8l-3.4,6.8h15.2v4.8H54V16H36.6z M40.2,27.3l2.3-4.6l-2.3-4.6h11.6v9.1H40.2z"/>
</svg>
