<?xml version="1.0" encoding="utf-8"?>
<svg version="1.1" id="Camada_1" xmlns="http://www.w3.org/2000/svg" xmlns:xlink="http://www.w3.org/1999/xlink" x="0px" y="0px"
	 viewBox="0 0 31 31" style="enable-background:new 0 0 31 31;" xml:space="preserve">
<style type="text/css">
	.svg_thumb_st0{fill:currentColor;}
</style>
<path class="svg_thumb_st0" d="M3.03735 25.1088H5.54532C6.235 25.1088 6.7993 24.5445 6.7993 23.8548V12.569C6.7993 11.8793 6.235 11.315 5.54532 11.315H3.03735L3.03735 25.1088ZM27.9038 16.1804C28.0417 15.8669 28.117 15.5284 28.117 15.1772V13.8229C28.117 12.4436 26.9884 11.315 25.609 11.315H18.7121L19.8658 5.48396C19.9285 5.20809 19.8909 4.90713 19.7655 4.65634C19.477 4.09205 19.1134 3.57791 18.662 3.12648L18.0851 2.53711L10.0471 10.5751C9.57059 11.0516 9.30726 11.6912 9.30726 12.3558V22.187C9.30726 23.7921 10.6239 25.1088 12.2416 25.1088H22.4114C23.2891 25.1088 24.1168 24.6448 24.5682 23.8924L27.9038 16.1804V16.1804Z" />
</svg>
